<?xml version="1.0" encoding="UTF-8" standalone="no"?>
<!DOCTYPE svg PUBLIC "-//W3C//DTD SVG 1.1//EN" "http://www.w3.org/Graphics/SVG/1.1/DTD/svg11.dtd">
<svg width="100%" height="100%" viewBox="0 0 277 52" version="1.1" xmlns="http://www.w3.org/2000/svg" xmlns:xlink="http://www.w3.org/1999/xlink" xml:space="preserve" xmlns:serif="http://www.serif.com/" style="fill-rule:evenodd;clip-rule:evenodd;stroke-linejoin:round;stroke-miterlimit:2;">
    <g transform="matrix(1,0,0,1,-844.62,-172.77)">
        <g transform="matrix(1.07451,0,0,1.07451,90.8585,-327.898)">
            <g transform="matrix(8.6945,0,0,1.28161,-5811.44,-224.371)">
                <path d="M778.364,540.649L749.384,540.649L749.384,573.905L778.364,573.905L778.364,540.649ZM777.994,543.157L749.754,543.157L749.754,571.397L777.994,571.397L777.994,543.157Z" style="fill:rgb(55,55,55);"/>
            </g>
            <g transform="matrix(1,0,0,1,-1.22406,0.096)">
                <g transform="matrix(1,0,0,1,10.4815,-125.923)">
                    <path d="M886.206,624.917L894.596,606.66L895.746,606.66C895.853,606.894 895.999,607.215 896.184,607.625C896.452,608.217 896.772,608.925 897.143,609.749C897.514,610.572 897.929,611.484 898.386,612.483C898.844,613.482 899.31,614.493 899.785,615.516C900.26,616.541 900.727,617.549 901.185,618.541C901.643,619.534 902.062,620.446 902.443,621.279C902.823,622.111 903.147,622.818 903.415,623.402C903.682,623.986 903.868,624.389 903.971,624.613L904.112,624.917L900.208,624.917C900.127,624.749 900.025,624.532 899.901,624.265C899.745,623.928 899.568,623.538 899.368,623.097L899.009,622.3L891.271,622.3L890.104,624.917L886.206,624.917ZM895.153,613.596L892.702,619.092L897.589,619.092C897.037,617.839 896.472,616.554 896.36,616.301C896.144,615.813 895.945,615.366 895.764,614.958L895.153,613.596Z" style="fill:rgb(55,55,55);fill-rule:nonzero;"/>
                </g>
                <g transform="matrix(24,0,0,24,833.239,498.637)">
                    <path d="M0.22,-0.238L0.22,0.015L0.068,0.015L0.068,-0.746C0.068,-0.746 0.287,-0.746 0.287,-0.746C0.327,-0.746 0.364,-0.74 0.398,-0.73C0.432,-0.719 0.462,-0.703 0.487,-0.681C0.512,-0.66 0.532,-0.633 0.546,-0.602C0.56,-0.571 0.567,-0.536 0.567,-0.496C0.567,-0.475 0.565,-0.453 0.56,-0.432C0.556,-0.411 0.549,-0.39 0.539,-0.37C0.529,-0.35 0.517,-0.332 0.502,-0.315C0.491,-0.302 0.478,-0.292 0.464,-0.282C0.488,-0.245 0.656,0.015 0.656,0.015L0.475,0.015L0.31,-0.238L0.22,-0.238ZM0.22,-0.383L0.298,-0.383C0.321,-0.383 0.34,-0.386 0.356,-0.394C0.371,-0.402 0.382,-0.411 0.391,-0.422C0.4,-0.433 0.406,-0.445 0.409,-0.458C0.413,-0.471 0.415,-0.483 0.415,-0.494C0.415,-0.505 0.413,-0.517 0.409,-0.53C0.406,-0.542 0.4,-0.554 0.391,-0.564C0.382,-0.575 0.37,-0.584 0.355,-0.591C0.34,-0.599 0.321,-0.602 0.299,-0.602L0.22,-0.602L0.22,-0.383Z" style="fill:rgb(55,55,55);"/>
                </g>
                <g transform="matrix(24,0,0,24,879.223,498.637)">
                    <path d="M0.22,-0.238L0.22,0.015L0.068,0.015L0.068,-0.746C0.068,-0.746 0.287,-0.746 0.287,-0.746C0.327,-0.746 0.364,-0.74 0.398,-0.73C0.432,-0.719 0.462,-0.703 0.487,-0.681C0.512,-0.66 0.532,-0.633 0.546,-0.602C0.56,-0.571 0.567,-0.536 0.567,-0.496C0.567,-0.475 0.565,-0.453 0.56,-0.432C0.556,-0.411 0.549,-0.39 0.539,-0.37C0.529,-0.35 0.517,-0.332 0.502,-0.315C0.491,-0.302 0.478,-0.292 0.464,-0.282C0.488,-0.245 0.656,0.015 0.656,0.015L0.475,0.015L0.31,-0.238L0.22,-0.238ZM0.22,-0.383L0.298,-0.383C0.321,-0.383 0.34,-0.386 0.356,-0.394C0.371,-0.402 0.382,-0.411 0.391,-0.422C0.4,-0.433 0.406,-0.445 0.409,-0.458C0.413,-0.471 0.415,-0.483 0.415,-0.494C0.415,-0.505 0.413,-0.517 0.409,-0.53C0.406,-0.542 0.4,-0.554 0.391,-0.564C0.382,-0.575 0.37,-0.584 0.355,-0.591C0.34,-0.599 0.321,-0.602 0.299,-0.602L0.22,-0.602L0.22,-0.383Z" style="fill:rgb(55,55,55);"/>
                </g>
                <g transform="matrix(1,0,0,1,10.4815,-126.09)">
                    <path d="M844.065,621.468L853.185,621.468L853.185,625.084L840.425,625.084L840.425,606.827L852.849,606.827L852.849,610.443L844.065,610.443L844.065,614.147L851.889,614.147L851.889,617.763L844.065,617.763L844.065,621.468Z" style="fill:rgb(55,55,55);fill-rule:nonzero;"/>
                </g>
                <g transform="matrix(1,0,0,1,10.4815,-126.09)">
                    <path d="M859.313,610.323L855.017,610.323L855.017,606.827L867.321,606.827L867.321,610.323L862.929,610.323L862.929,625.084L859.313,625.084L859.313,610.323Z" style="fill:rgb(55,55,55);fill-rule:nonzero;"/>
                </g>
                <g transform="matrix(1,0,0,1,10.4815,-126.09)">
                    <path d="M907.336,610.323L903.04,610.323L903.04,606.827L915.344,606.827L915.344,610.323L910.952,610.323L910.952,625.084L907.336,625.084L907.336,610.323Z" style="fill:rgb(55,55,55);fill-rule:nonzero;"/>
                </g>
                <g transform="matrix(23.5094,0,0,23.5094,926.446,498.459)">
                    <path d="M0.017,-0.362C0.017,-0.308 0.027,-0.257 0.048,-0.21C0.068,-0.163 0.096,-0.121 0.132,-0.086C0.167,-0.05 0.209,-0.022 0.256,-0.002C0.303,0.019 0.354,0.029 0.408,0.029C0.462,0.029 0.512,0.019 0.56,-0.002C0.607,-0.022 0.649,-0.05 0.684,-0.086C0.72,-0.121 0.748,-0.163 0.769,-0.21C0.789,-0.257 0.8,-0.308 0.8,-0.362C0.8,-0.415 0.789,-0.465 0.769,-0.513C0.748,-0.56 0.72,-0.602 0.684,-0.638C0.649,-0.674 0.607,-0.702 0.56,-0.723C0.512,-0.743 0.462,-0.754 0.408,-0.754C0.354,-0.754 0.303,-0.743 0.256,-0.723C0.208,-0.702 0.167,-0.674 0.132,-0.638C0.096,-0.602 0.068,-0.56 0.048,-0.513C0.027,-0.465 0.017,-0.415 0.017,-0.362ZM0.168,-0.361C0.168,-0.395 0.174,-0.427 0.187,-0.457C0.199,-0.487 0.217,-0.513 0.238,-0.535C0.26,-0.558 0.286,-0.575 0.315,-0.588C0.345,-0.601 0.376,-0.607 0.409,-0.607C0.442,-0.607 0.473,-0.601 0.502,-0.588C0.531,-0.575 0.557,-0.557 0.579,-0.535C0.601,-0.513 0.619,-0.487 0.631,-0.457C0.644,-0.428 0.65,-0.396 0.65,-0.362C0.65,-0.328 0.644,-0.295 0.631,-0.266C0.619,-0.236 0.602,-0.21 0.58,-0.188C0.558,-0.165 0.532,-0.148 0.503,-0.135C0.474,-0.122 0.443,-0.116 0.41,-0.116C0.377,-0.116 0.346,-0.122 0.316,-0.135C0.287,-0.148 0.261,-0.166 0.239,-0.188C0.217,-0.21 0.199,-0.236 0.187,-0.266C0.174,-0.295 0.168,-0.327 0.168,-0.361Z" style="fill:rgb(55,55,55);"/>
                </g>
            </g>
            <g transform="matrix(3.29975,0,0,3.29975,-2177.97,-1037.65)">
                <g transform="matrix(0.303053,0,0,0.303053,652.849,276.222)">
                    <path d="M766.765,625.419C767.756,625.419 768.682,625.255 769.545,624.931C770.415,624.603 771.173,624.141 771.82,623.547C772.47,622.949 772.982,622.23 773.354,621.389C773.725,620.553 773.913,619.618 773.913,618.583C773.913,618.583 773.913,606.827 773.913,606.827L770.273,606.827L770.273,618.511C770.273,618.998 770.184,619.447 770.004,619.857C769.821,620.272 769.572,620.637 769.255,620.953C768.942,621.267 768.572,621.51 768.147,621.684C767.718,621.86 767.257,621.947 766.765,621.947C766.259,621.947 765.795,621.861 765.373,621.685C764.955,621.511 764.588,621.267 764.275,620.953C763.96,620.639 763.716,620.276 763.541,619.864C763.367,619.451 763.281,619 763.281,618.511L763.281,606.827L759.641,606.827L759.641,618.583C759.641,619.618 759.829,620.553 760.2,621.389C760.573,622.23 761.085,622.949 761.735,623.547C762.381,624.141 763.134,624.603 763.995,624.93C764.85,625.255 765.773,625.419 766.765,625.419Z" style="fill:rgb(55,55,55);fill-rule:nonzero;"/>
                </g>
                <g transform="matrix(0.303053,0,0,0.303053,652.849,276.301)">
                    <path d="M749.363,606.66C749.47,606.894 749.616,607.215 749.801,607.625C750.069,608.217 750.389,608.925 750.76,609.749C751.131,610.572 751.546,611.484 752.003,612.483C752.461,613.482 752.927,614.493 753.402,615.516C753.877,616.541 754.344,617.549 754.802,618.541C755.26,619.534 755.679,620.446 756.06,621.279C756.44,622.111 756.764,622.818 757.032,623.402C757.299,623.986 757.485,624.389 757.588,624.613L757.729,624.917L753.825,624.917C753.744,624.749 753.642,624.532 753.518,624.265C753.362,623.928 753.184,623.538 752.985,623.097L752.626,622.3L744.888,622.3L743.721,624.917L739.823,624.917L748.213,606.66L749.363,606.66ZM748.77,613.596L746.319,619.092L751.206,619.092C750.654,617.839 750.089,616.554 749.977,616.301C749.761,615.813 749.562,615.366 749.381,614.958L748.77,613.596Z" style="fill:rgb(55,55,55);fill-rule:nonzero;"/>
                </g>
                <g transform="matrix(7.27327,0,0,7.27327,888.115,465.576)">
                    <path d="M0.068,-0.746L0.068,0.021L0.307,0.021C0.359,0.021 0.408,0.012 0.454,-0.005C0.501,-0.022 0.542,-0.047 0.577,-0.08C0.613,-0.112 0.641,-0.152 0.661,-0.198C0.681,-0.244 0.692,-0.296 0.692,-0.353C0.692,-0.399 0.684,-0.445 0.669,-0.492C0.654,-0.539 0.63,-0.581 0.596,-0.619C0.563,-0.657 0.519,-0.688 0.465,-0.711C0.412,-0.734 0.348,-0.746 0.271,-0.746L0.068,-0.746ZM0.219,-0.125L0.291,-0.125C0.327,-0.125 0.361,-0.13 0.392,-0.141C0.422,-0.151 0.448,-0.166 0.471,-0.186C0.493,-0.206 0.51,-0.23 0.522,-0.259C0.535,-0.288 0.541,-0.322 0.541,-0.36C0.541,-0.401 0.534,-0.436 0.52,-0.466C0.506,-0.496 0.488,-0.521 0.465,-0.541C0.448,-0.556 0.43,-0.568 0.41,-0.577C0.403,-0.58 0.396,-0.582 0.389,-0.585C0.36,-0.594 0.331,-0.599 0.301,-0.599L0.219,-0.599L0.219,-0.125Z" style="fill:rgb(55,55,55);"/>
                </g>
                <g transform="matrix(0.303053,0,0,0.303053,652.849,276.251)">
                    <rect x="795.977" y="606.827" width="3.616" height="18.4" style="fill:rgb(55,55,55);fill-rule:nonzero;"/>
                </g>
                <g transform="matrix(7.12459,0,0,7.12459,896.016,465.522)">
                    <path d="M0.017,-0.362C0.017,-0.308 0.027,-0.257 0.048,-0.21C0.068,-0.163 0.096,-0.121 0.132,-0.086C0.167,-0.05 0.209,-0.022 0.256,-0.002C0.303,0.019 0.354,0.029 0.408,0.029C0.462,0.029 0.512,0.019 0.56,-0.002C0.607,-0.022 0.649,-0.05 0.684,-0.086C0.72,-0.121 0.748,-0.163 0.769,-0.21C0.789,-0.257 0.8,-0.308 0.8,-0.362C0.8,-0.415 0.789,-0.465 0.769,-0.513C0.748,-0.56 0.72,-0.602 0.684,-0.638C0.649,-0.674 0.607,-0.702 0.56,-0.723C0.512,-0.743 0.462,-0.754 0.408,-0.754C0.354,-0.754 0.303,-0.743 0.256,-0.723C0.208,-0.702 0.167,-0.674 0.132,-0.638C0.096,-0.602 0.068,-0.56 0.048,-0.513C0.027,-0.465 0.017,-0.415 0.017,-0.362ZM0.172,-0.361C0.172,-0.394 0.178,-0.426 0.191,-0.455C0.203,-0.485 0.22,-0.511 0.241,-0.532C0.263,-0.554 0.288,-0.571 0.317,-0.584C0.346,-0.597 0.377,-0.603 0.409,-0.603C0.441,-0.603 0.472,-0.597 0.5,-0.584C0.529,-0.571 0.555,-0.554 0.576,-0.532C0.598,-0.511 0.615,-0.485 0.627,-0.456C0.64,-0.426 0.646,-0.395 0.646,-0.362C0.646,-0.328 0.64,-0.297 0.627,-0.267C0.615,-0.238 0.598,-0.212 0.577,-0.191C0.555,-0.169 0.53,-0.152 0.501,-0.139C0.473,-0.126 0.442,-0.12 0.41,-0.12C0.377,-0.12 0.347,-0.126 0.318,-0.139C0.289,-0.152 0.263,-0.169 0.242,-0.191C0.22,-0.212 0.203,-0.238 0.191,-0.267C0.178,-0.297 0.172,-0.328 0.172,-0.361Z" style="fill:rgb(55,55,55);"/>
                </g>
            </g>
            <g transform="matrix(0.290873,0,0,0.290873,690.647,306.923)">
                <path d="M438.865,671.6L451.886,671.6C462.898,671.597 471.837,662.656 471.837,651.643C471.837,651.643 471.837,629.187 471.837,629.187C471.837,605.778 452.832,586.773 429.423,586.773C406.014,586.773 387.009,605.778 387.009,629.187C387.009,629.187 387.009,651.643 387.009,651.643C387.009,662.658 395.952,671.6 406.966,671.6L419.981,671.6L419.981,631.687L404.478,631.687C404.478,631.687 404.474,629.187 404.474,629.183C404.474,615.411 415.655,604.23 429.427,604.23C443.199,604.23 454.38,615.411 454.38,629.185L454.376,631.687L438.865,631.687L438.865,671.6Z" style="fill:rgb(55,55,55);"/>
            </g>
        </g>
    </g>
</svg>
